<!--?xml version="1.0" standalone="no"?-->
              <svg id="sw-js-blob-svg" viewBox="0 0 100 100" xmlns="http://www.w3.org/2000/svg" version="1.1">
                    <defs> 
                        <linearGradient id="sw-gradient" x1="0" x2="1" y1="1" y2="0">
                            <stop id="stop1" stop-color="rgba(111, 124, 210, 0.4823529411764706)" offset="0%"></stop>
                            <stop id="stop2" stop-color="rgba(91, 152, 206, 1)" offset="100%"></stop>
                        </linearGradient>
                    </defs>
                <path fill="url(#sw-gradient)" d="M20.1,-33.7C25.1,-28.1,27.4,-20.8,29.6,-14.1C31.8,-7.4,33.8,-1.1,32.4,4.3C31.1,9.7,26.4,14.2,22.2,19.5C18.1,24.8,14.4,30.7,8.8,34.2C3.3,37.8,-4.2,38.8,-10.6,36.7C-17,34.6,-22.3,29.3,-27.6,23.7C-33,18,-38.3,12.2,-40.8,4.9C-43.4,-2.3,-43.1,-10.9,-39.7,-18C-36.3,-25.1,-29.8,-30.7,-22.7,-35.4C-15.6,-40.1,-7.8,-43.8,-0.1,-43.7C7.6,-43.5,15.1,-39.4,20.1,-33.7Z" width="100%" height="100%" transform="translate(50 50)" stroke-width="0" style="transition: all 0.3s ease 0s;"></path>
              </svg>